<svg width="100" height="100" viewBox="0 0 100 100" fill="none" xmlns="http://www.w3.org/2000/svg">
<path fill-rule="evenodd" clip-rule="evenodd" d="M25 26.5C24.569 26.5 24.1557 26.6712 23.851 26.976C23.5462 27.2807 23.375 27.694 23.375 28.125V84.5852L42.8781 70.6544C43.3997 70.2819 44.1003 70.2819 44.6219 70.6544L64.125 84.5852V28.125C64.125 27.694 63.9538 27.2807 63.6491 26.976C63.3443 26.6712 62.931 26.5 62.5 26.5H25ZM21.7296 24.8546C22.597 23.9873 23.7734 23.5 25 23.5H62.5C63.7266 23.5 64.903 23.9873 65.7704 24.8546C66.6377 25.722 67.125 26.8984 67.125 28.125V87.5C67.125 88.0619 66.811 88.5766 66.3114 88.8338C65.8118 89.0909 65.2104 89.0472 64.7531 88.7206L43.75 73.7184L22.7469 88.7206C22.2896 89.0472 21.6882 89.0909 21.1886 88.8338C20.689 88.5766 20.375 88.0619 20.375 87.5V28.125C20.375 26.8984 20.8623 25.722 21.7296 24.8546Z" fill="white"/>
<path fill-rule="evenodd" clip-rule="evenodd" d="M32.875 12.5C32.875 11.6716 33.5466 11 34.375 11H75C76.2266 11 77.403 11.4873 78.2704 12.3546C79.1377 13.222 79.625 14.3984 79.625 15.625V75C79.625 75.8284 78.9534 76.5 78.125 76.5C77.2966 76.5 76.625 75.8284 76.625 75V15.625C76.625 15.194 76.4538 14.7807 76.1491 14.476C75.8443 14.1712 75.431 14 75 14H34.375C33.5466 14 32.875 13.3284 32.875 12.5Z" fill="white"/>
</svg>
